
<svg width="236px" height="44px" viewBox="0 0 236 44" version="1.1" xmlns="http://www.w3.org/2000/svg" xmlns:xlink="http://www.w3.org/1999/xlink">
    <defs>
        <polygon id="path-1" points="0 0.4602 17.4958 0.4602 17.4958 31.9822 0 31.9822"></polygon>
    </defs>
    <g id="Pages" stroke="none" stroke-width="1" fill="none" fill-rule="evenodd">
        <g id="Group-22">
            <path d="M86.2968,27.2177 L75.7548,28.9887 C73.0068,29.5077 70.1918,29.4987 70.1918,34.0267 C70.1918,39.7537 74.8998,40.1517 78.6648,40.1517 C81.2488,40.1727 83.8198,39.7867 86.2828,39.0087 L86.2968,27.2177 Z M86.0688,42.9037 C83.6198,43.4167 81.1248,43.6847 78.6218,43.7037 C73.6958,43.7037 65.5048,43.5327 65.5048,34.2537 C65.5048,26.5797 69.7458,26.2977 75.4168,25.3817 L86.2408,23.6057 L86.2408,20.9127 C86.2408,19.0817 86.1808,17.5917 84.1778,16.8467 C83.0908,16.3887 81.4848,16.1627 78.9648,16.1627 C74.5568,16.1627 70.7178,17.2497 68.3718,17.8227 C68.2568,17.8227 68.1408,17.8787 68.0258,17.8787 C67.7508,17.8777 67.5138,17.6877 67.4518,17.4207 L66.9388,14.8527 L66.9388,14.7377 C66.9548,14.4057 67.1898,14.1267 67.5118,14.0527 C69.3438,13.3637 74.2698,12.2767 79.4958,12.2767 C83.5618,12.2767 86.1928,12.8497 87.8588,13.7657 C90.7768,15.3107 90.8328,18.0027 90.8328,20.6947 L90.8328,37.0017 C90.8198,41.0117 90.0198,41.9277 86.0688,42.9037 L86.0688,42.9037 Z" id="Fill-1" fill="#333333"></path>
            <path d="M115.7383,16.9071 C113.2133,16.2451 110.6153,15.8991 108.0043,15.8761 C101.7043,15.8761 98.8963,17.7841 98.8963,27.9791 C98.8963,38.8631 102.2213,40.1211 108.0643,40.1211 C110.6603,40.1131 113.2423,39.7471 115.7383,39.0341 L115.7383,16.9071 Z M116.6543,42.5871 C113.8013,43.3841 110.8493,43.7691 107.8883,43.7291 C96.7603,43.7291 94.1933,38.6921 94.1933,27.9241 C94.1933,16.9281 97.2273,12.2671 107.5383,12.2671 C110.4973,12.2561 113.4453,12.6401 116.3023,13.4101 L115.7293,10.0891 L115.7293,1.4991 C115.7293,1.0411 116.0163,0.8701 116.4743,0.8101 L119.5733,0.0101 L119.7443,0.0101 C120.1463,0.0101 120.2613,0.4121 120.2613,0.7551 L120.2613,38.0631 C120.2663,40.1811 120.2663,41.7821 116.6543,42.5871 L116.6543,42.5871 Z" id="Fill-3" fill="#333333"></path>
            <path d="M148.7275,41.2299 C148.7325,41.6699 148.4565,42.0649 148.0425,42.2139 C146.6645,42.9589 142.4275,43.7039 138.1995,43.7039 C126.8575,43.7039 123.7625,38.4909 123.7625,28.0689 C123.7625,17.6469 126.8575,12.2679 138.1995,12.2679 C142.4365,12.2679 146.6735,13.0679 148.0425,13.7569 C148.4555,13.9009 148.7305,14.2919 148.7275,14.7289 L148.7275,15.0159 L147.9835,18.5679 C147.9005,18.9729 147.5405,19.2609 147.1265,19.2519 C147.0155,19.2519 146.8445,19.1969 146.7855,19.1969 C144.6555,18.6249 142.4625,18.3169 140.2575,18.2809 C134.3555,18.2809 132.6395,20.9089 132.6395,28.0089 C132.6395,35.1099 134.3515,37.7459 140.2575,37.7459 C142.4695,37.7089 144.6675,37.3969 146.8015,36.8169 C146.8625,36.8169 147.0335,36.7619 147.1445,36.7619 C147.5775,36.7579 147.9445,37.0779 147.9995,37.5059 L148.7455,40.9309 L148.7275,41.2299 Z" id="Fill-5" fill="#333333"></path>
            <path d="M169.1777,28.7626 L163.0657,29.7346 C160.8877,30.0806 158.9787,30.3926 158.9787,33.8296 C158.9787,37.8406 162.1837,38.1826556 164.4787,38.1826556 C166.0687,38.1866 167.6527,37.9746 169.1857,37.5536 L169.1777,28.7626 Z M172.3617,42.9376 C169.6917,43.5206 166.9617,43.7886 164.2297,43.7386 C157.5867,43.7386 150.2557,42.8826 150.2557,33.9456 C150.2557,26.6146 154.9637,25.7276 159.1547,25.0946 L169.1167,23.4936 L169.1167,21.9446 C169.1167,20.3996 168.9467,19.4286 167.7437,18.8546 C166.9437,18.4516 165.5657,18.2816 163.6777,18.2816 C159.9537,18.2816 155.6017,19.4836 154.0567,19.8256 C153.9317,19.8916 153.7947,19.9306 153.6547,19.9416 C153.3387,19.9716 153.0587,19.7426 153.0257,19.4286 L152.1687,15.4736 C152.1237,15.3846 152.1047,15.2856 152.1137,15.1866 C152.1297,14.7826 152.4067,14.4356 152.7977,14.3306 C154.0607,13.8126 159.4457,12.2676 165.5697,12.2676 C169.5797,12.2676 172.3877,12.8416 174.2797,13.9286 C177.1427,15.4736 177.9427,18.1096 177.9427,21.3156 L177.9207,36.9796 C177.9167,41.3326 176.3337,42.0776 172.3617,42.9376 L172.3617,42.9376 Z" id="Fill-7" fill="#333333"></path>
            <path d="M192.3359,43.7167 C187.3549,43.7167 182.7709,42.5137 181.7389,42.0557 C181.3569,41.9507 181.0959,41.5967 181.1099,41.1997 L181.1099,40.8577 L181.8549,37.1947 C181.9149,36.6757 182.1419,36.5047 182.4829,36.5047 C182.5829,36.4957 182.6829,36.5147 182.7709,36.5607 C183.5159,36.7367 187.6419,37.8787 191.1929,37.8787 C193.7619,37.8787 196.0039,37.0787 196.0039,34.6177 C196.0039,31.8097 194.2279,31.6217 191.2489,31.0657 C187.4699,30.3757 181.4909,29.7377 181.4909,21.7217 C181.4909,13.3037 188.8779,12.2716983 193.9019,12.2716983 C197.0609,12.2707 200.2029,12.7147 203.2369,13.5907 C203.6199,13.6957 203.8809,14.0497 203.8659,14.4457 L203.8659,14.6177 L203.1979,18.4137 C203.1249,18.7877 202.7719,19.0377 202.3949,18.9827 C202.3389,18.9827 202.2779,18.9267 202.2229,18.9267 C201.6489,18.8717 198.2129,18.1267 195.2329,18.1267 C193.0039,18.1267 190.3119,18.5847 190.3119,21.1227 C190.3119,24.1187 193.0599,24.2127 195.9789,24.7307 C200.2589,25.4757 204.8199,26.5707 204.8199,33.9027 C204.8199,41.3717 199.3249,43.7167 192.3359,43.7167" id="Fill-9" fill="#333333"></path>
            <path d="M234.541,43.7465 L227.539,43.7465 C227.083,43.7945 226.674,43.4635 226.627,43.0065 C226.623,42.9685 226.621,42.9295 226.623,42.8905 L226.623,21.9445 C226.623,19.4285 225.767,18.1655 223.015,18.1655 C220.956,18.2045 218.904,18.4315 216.886,18.8415 L216.886,42.8735 C216.902,43.3315 216.545,43.7165 216.086,43.7335 C216.048,43.7345 216.009,43.7335 215.97,43.7295 L208.98,43.7295 C208.524,43.7775 208.116,43.4455 208.069,42.9895 C208.064034,42.9515 208.063,42.9125 208.065,42.8735 L208.065,2.4715 C208.065,1.6705 208.296,1.2125 209.097,1.0975 L215.628,0.0105 L215.91,0.0105 C216.378,-0.0615 216.814,0.2595 216.886,0.7265 C216.898,0.8115 216.898,0.8965 216.886,0.9815 L216.886,9.9175 L216.257,13.4705 C219.183,12.7505 222.177,12.3475 225.189,12.2675 C231.609,12.2675 235.461,14.0995 235.461,20.4545 L235.461,42.8865 C235.48,43.3445 235.124,43.7315 234.666,43.7505 C234.624,43.7525 234.582,43.7514657 234.541,43.7465" id="Fill-11" fill="#333333"></path>
            <path d="M232.9609,2.1713 C232.8459,2.0833 232.7039,2.0363 232.5589,2.0383 L231.7029,2.0383 L231.7029,3.0613 L232.5589,3.0613 C232.7079,3.0673 232.8529,3.0173 232.9659,2.9203 C233.0719,2.8253 233.1309,2.6863 233.1239,2.5443 C233.1289,2.4003 233.0669,2.2623 232.9569,2.1713 L232.9609,2.1713 Z M232.9319,3.5663 L233.6849,4.7173 C233.7189,4.7863 233.6849,4.8203 233.6419,4.8203 L233.0719,4.8203 C233.0249,4.8193 232.9829,4.7933 232.9609,4.7523 L232.2329,3.6133 L231.7119,3.6133 L231.7119,4.7433 C231.7119,4.7953 231.6899,4.8203 231.6389,4.8203 L231.1679,4.8203 C231.1309,4.8253 231.0959,4.7993 231.0909,4.7623 C231.0899,4.7553 231.0899,4.7493 231.0909,4.7433 L231.0909,1.5633 C231.0909,1.5073 231.1169,1.4783 231.1679,1.4783 L232.7049,1.4783 C232.9879,1.4753 233.2609,1.5893 233.4579,1.7953 C233.6639,1.9893 233.7799,2.2603 233.7789,2.5443 C233.8129,3.0573 233.4379,3.5063 232.9269,3.5663 L232.9319,3.5663 Z M234.0779,1.3753 C233.1219,0.4273 231.5809,0.4273 230.6249,1.3753 C230.1639,1.8243 229.9079,2.4433 229.9179,3.0873 C229.9109,3.7303 230.1659,4.3483 230.6249,4.7993 C231.5789,5.7523 233.1239,5.7523 234.0779,4.7993 C234.5409,4.3503 234.7989,3.7313 234.7929,3.0873 C234.8009,2.4423 234.5399,1.8213 234.0739,1.3753 L234.0779,1.3753 Z M234.5409,5.2823 C233.3329,6.4923 231.3739,6.4933 230.1639,5.2853 C230.1639,5.2843 230.1629,5.2833 230.1619,5.2823 C229.5769,4.7073 229.2539,3.9163 229.2679,3.0953 C229.2519,2.2773 229.5749,1.4883 230.1619,0.9173 C231.3699,-0.2917 233.3289,-0.2927 234.5379,0.9153 C234.5389,0.9163 234.5399,0.9163 234.5409,0.9173 C235.1329,1.4853 235.4619,2.2753 235.4479,3.0953 C235.4589,3.9183 235.1309,4.7093 234.5409,5.2823 L234.5409,5.2823 Z" id="Fill-13" fill="#333333"></path>
            <path d="M57.2353,0.0101762167 L43.2963,0.0101762167 C42.3203,0.0052 41.5243,0.7892 41.5153,1.7642 L41.5153,41.9532 C41.5153,42.9362 42.3123,43.7342 43.2963,43.7342 L57.2353,43.7342 C58.2163,43.7342 59.0113,42.9382 59.0113,41.9572 L59.0113,41.9532 L59.0113,1.7642 C59.0053,0.7902 58.2103,0.0052 57.2353,0.0101762167" id="Fill-15" fill="#5F154A"></path>
            <path d="M36.4863,6.4296 L22.5253,6.4296 C22.4583,6.4256 22.3913,6.4256 22.3243,6.4296 L22.2563,6.4296 L22.1103,6.4556 L22.0583,6.4556 C22.0073,6.4556 21.9523,6.4856 21.9003,6.5066 L21.8793,6.5066 C21.8443,6.5066 21.8143,6.5456 21.7853,6.5576 C21.6923,6.6016 21.6043,6.6516 21.5193,6.7076 C21.4903,6.7236 21.4623,6.7406 21.4333,6.7596 C21.3823,6.7976 21.3483,6.8456 21.3013,6.8876 L21.2463,6.9476 C21.2113,6.9866 21.1763,7.0156 21.1473,7.0546 C21.1243,7.0746 21.1023,7.0956 21.0833,7.1186 C20.8573,7.4216 20.7353,7.7896 20.7362939,8.1676 L20.7362939,23.4046 L20.7573,23.4046 L20.7573,41.9536 C20.7573,42.9366 21.5543,43.7336 22.5383,43.7336 L36.4863,43.7336 C37.4693,43.7336 38.2663,42.9366 38.2663,41.9536 L38.2663,8.1936 C38.2573,7.2166 37.4633,6.4296 36.4863,6.4296" id="Fill-17" fill="#821F5F"></path>
            <g id="Group-21" transform="translate(0.000000, 11.751600)">
                <mask id="mask-2" fill="white">
                    <use xlink:href="#path-1"></use>
                </mask>
                <g id="Clip-20"></g>
                <path d="M15.7158,0.4602 L1.7798,0.4602 C0.7968,0.4602 -0.0002,1.2572 -0.0002,2.2412 L-0.0002,30.2022 C-0.0002,31.1852 0.7968,31.9822 1.7798,31.9822 L15.7158,31.9822 C16.6988,31.9822 17.4958,31.1852 17.4958,30.2022 L17.4958,2.2412 C17.4958,1.2572 16.6988,0.4602 15.7158,0.4602" id="Fill-19" fill="#9C216C" mask="url(#mask-2)"></path>
            </g>
        </g>
    </g>
</svg>
